<?xml version="1.0" encoding="iso-8859-1"?>
<!-- Generator: Adobe Illustrator 19.0.0, SVG Export Plug-In . SVG Version: 6.00 Build 0)  -->
<svg version="1.1" id="Layer_1" xmlns="http://www.w3.org/2000/svg" xmlns:xlink="http://www.w3.org/1999/xlink" x="0px" y="0px"
	 viewBox="0 0 512 512" style="enable-background:new 0 0 512 512;" xml:space="preserve">
<g>
	<g>
		<g>
			<path d="M204.391,133.053c-19.759,0-35.837,16.079-35.837,35.838s16.079,35.826,35.837,35.826
				c19.759,0,35.826-16.067,35.826-35.826S224.15,133.053,204.391,133.053z M204.391,184.015c-8.35,0-15.135-6.786-15.135-15.124
				c0-8.35,6.786-15.135,15.135-15.135c8.338,0,15.124,6.786,15.124,15.135C219.515,177.229,212.729,184.015,204.391,184.015z"/>
			<path d="M455.978,157.389c-6.36,0-11.501,5.152-11.501,11.501v244.422c0,6.349,5.141,11.501,11.501,11.501
				c6.349,0,11.501-5.152,11.501-11.501V168.891C467.479,162.542,462.327,157.389,455.978,157.389z"/>
		</g>
	</g>
</g>
<g>
	<g>
		<path d="M455.978,157.389c-6.36,0-11.501,5.152-11.501,11.501v244.422c0,6.349,5.141,11.501,11.501,11.501
			c6.349,0,11.501-5.152,11.501-11.501V168.891C467.479,162.542,462.327,157.389,455.978,157.389z"/>
	</g>
</g>
<g>
	<g>
		<path d="M204.391,133.053c-19.759,0-35.837,16.079-35.837,35.838s16.079,35.826,35.837,35.826
			c19.759,0,35.826-16.067,35.826-35.826S224.15,133.053,204.391,133.053z M204.391,184.015c-8.35,0-15.135-6.786-15.135-15.124
			c0-8.35,6.786-15.135,15.135-15.135c8.338,0,15.124,6.786,15.124,15.135C219.515,177.229,212.729,184.015,204.391,184.015z"/>
	</g>
</g>
<g>
	<g>
		<g>
			<path d="M204.391,133.053c-19.759,0-35.837,16.079-35.837,35.838s16.079,35.826,35.837,35.826
				c19.759,0,35.826-16.067,35.826-35.826S224.15,133.053,204.391,133.053z M204.391,184.015c-8.35,0-15.135-6.786-15.135-15.124
				c0-8.35,6.786-15.135,15.135-15.135c8.338,0,15.124,6.786,15.124,15.135C219.515,177.229,212.729,184.015,204.391,184.015z"/>
			<path d="M429.905,29.037h-0.011c-45.268,0-82.095,36.827-82.095,82.095v35.067L208.29,95.835c-2.519-0.909-5.291-0.909-7.809,0
				L44.549,152.133c-3.186,1.15-5.693,3.646-6.878,6.82L0.718,258.484c-1.311,3.531-0.805,7.476,1.346,10.57
				c2.139,3.094,5.67,4.934,9.442,4.934h0.759v197.474c0,6.349,5.141,11.501,11.501,11.501h476.721
				c6.349,0,11.501-5.153,11.501-11.501v-360.33H512C512,65.864,475.174,29.037,429.905,29.037z M429.894,52.039
				c28.649,0,52.595,20.495,57.966,47.592H371.928C377.299,72.534,401.244,52.039,429.894,52.039z M118.915,397.993l-28.638,40.748
				v-81.508L118.915,397.993z M99.857,334.863h63.44l-31.72,45.119L99.857,334.863z M100.663,459.961l30.904-43.969l30.915,43.969
				H100.663z M172.878,438.73l-28.649-40.748l28.649-40.76V438.73z M264.542,397.993l-28.638,40.737v-81.485L264.542,397.993z
				 M245.485,334.863h63.44l-31.72,45.119L245.485,334.863z M246.29,459.961l30.904-43.969l30.915,43.969H246.29z M318.505,438.741
				l-28.649-40.76l28.649-40.76V438.741z M339.207,459.961V324.512c0-5.716-4.635-10.351-10.351-10.351H225.553
				c-5.728,0-10.351,4.635-10.351,10.351v135.449H193.58V324.512c0-5.716-4.635-10.351-10.351-10.351H79.926
				c-5.716,0-10.351,4.635-10.351,10.351v135.449H35.267V273.988h338.236v185.973H339.207z M28.033,250.986l5.394-14.503h305.918
				c6.349,0,11.501-5.153,11.501-11.501c0-6.36-5.153-11.501-11.501-11.501H41.961l15.423-41.519l147.007-53.078l146.996,53.078
				l29.351,79.024H28.033z M488.986,459.961h-92.48V273.988h0.771c3.761,0,7.292-1.84,9.442-4.934
				c2.151-3.094,2.645-7.039,1.334-10.57L371.1,158.954c-0.092-0.242-0.195-0.46-0.299-0.69v-35.63h118.185V459.961z"/>
			<path d="M455.978,424.814c6.349,0,11.501-5.152,11.501-11.501V168.891c0-0.397-0.02-0.789-0.059-1.175
				c-0.079-0.773-0.234-1.523-0.458-2.243c-0.336-1.08-0.827-2.092-1.448-3.01c-0.413-0.612-0.884-1.182-1.405-1.702
				c-0.26-0.26-0.533-0.508-0.817-0.742c-1.988-1.641-4.537-2.627-7.314-2.627c-6.36,0-11.501,5.152-11.501,11.501v244.422
				C444.477,419.661,449.618,424.814,455.978,424.814z"/>
		</g>
	</g>
</g>
<g>
</g>
<g>
</g>
<g>
</g>
<g>
</g>
<g>
</g>
<g>
</g>
<g>
</g>
<g>
</g>
<g>
</g>
<g>
</g>
<g>
</g>
<g>
</g>
<g>
</g>
<g>
</g>
<g>
</g>
</svg>
